<?xml version="1.0" encoding="UTF-8" standalone="no"?>
<!DOCTYPE svg PUBLIC "-//W3C//DTD SVG 1.1//EN"
 "http://www.w3.org/Graphics/SVG/1.1/DTD/svg11.dtd">
<!-- Generated by graphviz version 5.0.0 (20220707.1540)
 -->
<!-- Title: G Pages: 1 -->
<svg width="383pt" height="430pt"
 viewBox="0.00 0.00 383.09 429.71" xmlns="http://www.w3.org/2000/svg" xmlns:xlink="http://www.w3.org/1999/xlink">
<g id="graph0" class="graph" transform="scale(1 1) rotate(0) translate(4 425.71)">
<title>G</title><style>.edge>path:hover{stroke-width:8}</style>
<polygon fill="white" stroke="transparent" points="-4,4 -4,-425.71 379.09,-425.71 379.09,4 -4,4"/>
<!-- bs4 -->
<g id="node1" class="node">
<title>bs4</title><style>.edge>path:hover{stroke-width:8}</style>
<ellipse fill="#ce3b3b" stroke="black" cx="217.4" cy="-403.71" rx="27" ry="18"/>
<text text-anchor="middle" x="217.4" y="-401.21" font-family="Helvetica,sans-Serif" font-size="10.00" fill="#ffffff">bs4</text>
</g>
<!-- python_assets_internal_globals -->
<g id="node5" class="node">
<title>python_assets_internal_globals</title><style>.edge>path:hover{stroke-width:8}</style>
<ellipse fill="#3333cc" stroke="black" cx="59.4" cy="-256.49" rx="59.29" ry="21.43"/>
<text text-anchor="middle" x="59.4" y="-259.49" font-family="Helvetica,sans-Serif" font-size="10.00" fill="#ffffff">python_assets.</text>
<text text-anchor="middle" x="59.4" y="-248.49" font-family="Helvetica,sans-Serif" font-size="10.00" fill="#ffffff">internal_globals</text>
</g>
<!-- bs4&#45;&gt;python_assets_internal_globals -->
<g id="edge1" class="edge">
<title>bs4&#45;&gt;python_assets_internal_globals</title><style>.edge>path:hover{stroke-width:8}</style>
<path fill="none" stroke="black" d="M118.4,-330.71C108.07,-314.69 94.89,-298.05 83.61,-284.69"/>
<polygon fill="#ce3b3b" stroke="black" points="86.03,-282.14 76.87,-276.83 80.72,-286.7 86.03,-282.14"/>
<path fill="none" stroke="black" d="M195.05,-393.12C172.04,-382.04 136.99,-361.54 118.4,-332.71"/>
</g>
<!-- python_assets_renderer_std -->
<g id="node7" class="node">
<title>python_assets_renderer_std</title><style>.edge>path:hover{stroke-width:8}</style>
<ellipse fill="#3535a1" stroke="black" cx="146.4" cy="-178.07" rx="58.88" ry="21.43"/>
<text text-anchor="middle" x="146.4" y="-181.07" font-family="Helvetica,sans-Serif" font-size="10.00" fill="#ffffff">python_assets.</text>
<text text-anchor="middle" x="146.4" y="-170.07" font-family="Helvetica,sans-Serif" font-size="10.00" fill="#ffffff">renderer_std</text>
</g>
<!-- bs4&#45;&gt;python_assets_renderer_std -->
<g id="edge2" class="edge">
<title>bs4&#45;&gt;python_assets_renderer_std</title><style>.edge>path:hover{stroke-width:8}</style>
<path fill="none" stroke="black" d="M146.4,-255.49C143.08,-240.63 142.74,-223.74 143.37,-209.62"/>
<polygon fill="#ce3b3b" stroke="black" points="146.87,-209.64 144.01,-199.44 139.89,-209.2 146.87,-209.64"/>
<path fill="none" stroke="black" d="M118.4,-330.71C99.52,-301.43 153.99,-291.49 146.4,-257.49"/>
</g>
<!-- python_assets_test -->
<g id="node8" class="node">
<title>python_assets_test</title><style>.edge>path:hover{stroke-width:8}</style>
<ellipse fill="#4646a4" stroke="black" cx="316.4" cy="-178.07" rx="58.88" ry="21.43"/>
<text text-anchor="middle" x="316.4" y="-181.07" font-family="Helvetica,sans-Serif" font-size="10.00" fill="#ffffff">python_assets.</text>
<text text-anchor="middle" x="316.4" y="-170.07" font-family="Helvetica,sans-Serif" font-size="10.00" fill="#ffffff">test</text>
</g>
<!-- bs4&#45;&gt;python_assets_test -->
<g id="edge3" class="edge">
<title>bs4&#45;&gt;python_assets_test</title><style>.edge>path:hover{stroke-width:8}</style>
<path fill="none" stroke="black" d="M239.99,-393.62C258.34,-385.05 283.4,-370.41 297.4,-349.71 320.83,-315.04 301.27,-296.51 316.4,-257.49"/>
</g>
<!-- lxml -->
<g id="node2" class="node">
<title>lxml</title><style>.edge>path:hover{stroke-width:8}</style>
<ellipse fill="#47c247" stroke="black" cx="173.4" cy="-331.71" rx="27" ry="18"/>
<text text-anchor="middle" x="173.4" y="-329.21" font-family="Helvetica,sans-Serif" font-size="10.00" fill="#000000">lxml</text>
</g>
<!-- lxml&#45;&gt;python_assets_renderer_std -->
<g id="edge4" class="edge">
<title>lxml&#45;&gt;python_assets_renderer_std</title><style>.edge>path:hover{stroke-width:8}</style>
<path fill="none" stroke="black" d="M165.87,-314.22C159.56,-299.63 150.88,-277.59 146.4,-257.49"/>
</g>
<!-- lxml&#45;&gt;python_assets_test -->
<g id="edge5" class="edge">
<title>lxml&#45;&gt;python_assets_test</title><style>.edge>path:hover{stroke-width:8}</style>
<path fill="none" stroke="black" d="M316.4,-255.49C322.03,-240.96 322.5,-223.67 321.35,-209.21"/>
<polygon fill="#47c247" stroke="black" points="324.83,-208.84 320.28,-199.27 317.87,-209.58 324.83,-208.84"/>
<path fill="none" stroke="black" d="M194.59,-320.31C234.1,-300.86 315.18,-260.64 316.4,-257.49"/>
</g>
<!-- lxml_etree -->
<g id="node3" class="node">
<title>lxml_etree</title><style>.edge>path:hover{stroke-width:8}</style>
<ellipse fill="#47c247" stroke="black" cx="253.4" cy="-331.71" rx="34.96" ry="18"/>
<text text-anchor="middle" x="253.4" y="-329.21" font-family="Helvetica,sans-Serif" font-size="10.00" fill="#000000">lxml.etree</text>
</g>
<!-- lxml_etree&#45;&gt;python_assets_renderer_std -->
<g id="edge6" class="edge">
<title>lxml_etree&#45;&gt;python_assets_renderer_std</title><style>.edge>path:hover{stroke-width:8}</style>
<path fill="none" stroke="black" d="M228.81,-318.87C198.56,-303.56 150.66,-276.6 146.4,-257.49"/>
</g>
<!-- lxml_etree&#45;&gt;python_assets_test -->
<g id="edge7" class="edge">
<title>lxml_etree&#45;&gt;python_assets_test</title><style>.edge>path:hover{stroke-width:8}</style>
<path fill="none" stroke="black" d="M271.58,-316.04C286.7,-302.61 307.18,-281.26 316.4,-257.49"/>
</g>
<!-- python_assets_cardarbiter -->
<g id="node4" class="node">
<title>python_assets_cardarbiter</title><style>.edge>path:hover{stroke-width:8}</style>
<ellipse fill="#3a3ab0" stroke="black" cx="102.4" cy="-99.64" rx="58.88" ry="21.43"/>
<text text-anchor="middle" x="102.4" y="-102.64" font-family="Helvetica,sans-Serif" font-size="10.00" fill="#ffffff">python_assets.</text>
<text text-anchor="middle" x="102.4" y="-91.64" font-family="Helvetica,sans-Serif" font-size="10.00" fill="#ffffff">cardarbiter</text>
</g>
<!-- python_assets_main -->
<g id="node6" class="node">
<title>python_assets_main</title><style>.edge>path:hover{stroke-width:8}</style>
<ellipse fill="#4949ac" stroke="black" cx="102.4" cy="-21.21" rx="58.88" ry="21.43"/>
<text text-anchor="middle" x="102.4" y="-24.21" font-family="Helvetica,sans-Serif" font-size="10.00" fill="#ffffff">python_assets.</text>
<text text-anchor="middle" x="102.4" y="-13.21" font-family="Helvetica,sans-Serif" font-size="10.00" fill="#ffffff">main</text>
</g>
<!-- python_assets_cardarbiter&#45;&gt;python_assets_main -->
<g id="edge8" class="edge">
<title>python_assets_cardarbiter&#45;&gt;python_assets_main</title><style>.edge>path:hover{stroke-width:8}</style>
<path fill="none" stroke="black" d="M102.4,-78.16C102.4,-70.3 102.4,-61.16 102.4,-52.57"/>
<polygon fill="#3a3ab0" stroke="black" points="105.9,-52.49 102.4,-42.49 98.9,-52.49 105.9,-52.49"/>
</g>
<!-- python_assets_internal_globals&#45;&gt;python_assets_cardarbiter -->
<g id="edge9" class="edge">
<title>python_assets_internal_globals&#45;&gt;python_assets_cardarbiter</title><style>.edge>path:hover{stroke-width:8}</style>
<path fill="none" stroke="black" d="M62.02,-235.16C64.92,-215 70.28,-183.37 78.4,-156.85 81.13,-147.93 84.81,-138.51 88.47,-129.98"/>
<polygon fill="#3333cc" stroke="black" points="91.69,-131.37 92.55,-120.81 85.29,-128.53 91.69,-131.37"/>
</g>
<!-- python_assets_internal_globals&#45;&gt;python_assets_renderer_std -->
<g id="edge10" class="edge">
<title>python_assets_internal_globals&#45;&gt;python_assets_renderer_std</title><style>.edge>path:hover{stroke-width:8}</style>
<path fill="none" stroke="black" d="M80.9,-236.6C91.88,-226.96 105.4,-215.08 117.3,-204.63"/>
<polygon fill="#3333cc" stroke="black" points="119.63,-207.23 124.84,-198.01 115.01,-201.98 119.63,-207.23"/>
</g>
<!-- python_assets_renderer_std&#45;&gt;python_assets_cardarbiter -->
<g id="edge11" class="edge">
<title>python_assets_renderer_std&#45;&gt;python_assets_cardarbiter</title><style>.edge>path:hover{stroke-width:8}</style>
<path fill="none" stroke="black" d="M134.84,-156.99C129.99,-148.56 124.25,-138.6 118.97,-129.42"/>
<polygon fill="#3535a1" stroke="black" points="121.9,-127.51 113.88,-120.59 115.84,-131 121.9,-127.51"/>
</g>
</g>
</svg>
